<svg width="432" height="82" viewBox="0 0 432 82" fill="none" xmlns="http://www.w3.org/2000/svg">
<path d="M29.9038 3.82781C21.8075 10.5917 18.4925 12.7293 15.815 12.7293C13.3606 12.7293 13.0737 11.5169 14.5719 7.43309C15.4006 5.16783 15.4644 4.78496 15.0819 3.92353C13.9662 1.2435 9.4081 -0.0965196 5.45558 1.08397C3.35182 1.72207 1.12056 3.70019 0.387432 5.55069C-1.46133 10.4003 3.54307 16.3984 10.3644 17.4832C13.4881 17.9618 18.11 17.0684 21.6482 15.2498C22.3175 14.9308 22.9232 14.6436 22.9869 14.6436C23.1463 14.6436 23.6882 43.5816 23.6882 51.8131C23.6882 57.0456 23.6244 57.7475 22.955 59.5661C22.5407 60.6827 22.2857 61.7994 22.3813 62.0547C22.6363 62.7247 33.9838 62.6928 35.3226 62.0228C36.2788 61.5442 37.2351 60.0765 37.2351 59.1513C37.2351 58.4175 37.6495 58.577 38.8607 59.8213C41.0282 62.0866 44.8851 63.4585 49.1883 63.4585C53.8739 63.4585 58.7827 61.608 61.524 58.7684C67.9627 52.1641 69.3971 39.4977 64.7752 30.1176C62.5758 25.5871 58.3683 22.1094 53.2683 20.5142C50.9733 19.7804 50.2083 19.6847 47.6583 19.8123C43.7058 20.0356 41.602 20.8651 39.0201 23.2899L37.012 25.1404L36.8207 17.4513C36.6932 13.2079 36.5976 7.81595 36.5976 5.48688C36.5976 3.1259 36.4382 0.924444 36.2788 0.573488C35.6095 -0.638907 34.6213 -0.0965196 29.9038 3.82781ZM46.0645 27.0547C47.3714 28.0119 49.3158 30.6919 50.2083 32.7338C51.9614 36.8815 52.8858 44.0602 52.2802 49.3564C51.1008 59.8532 44.5983 61.3527 40.1357 52.1641C38.0957 47.9526 37.7132 45.783 37.7132 38.5725C37.7132 32.7658 37.777 32.2234 38.4782 30.4367C38.8926 29.3838 39.7851 27.98 40.4226 27.31C41.4745 26.2571 41.7932 26.1295 43.1958 26.1295C44.4389 26.1295 45.0764 26.3209 46.0645 27.0547Z" fill="#C87575"/>
<path d="M109.91 3.03019C107.169 3.60448 103.185 5.6145 100.093 7.94358C97.1922 10.1131 90.3072 17.1323 88.0441 20.1951L86.4822 22.3009L86.2909 20.9928C86.0997 19.6209 85.5897 19.0466 84.7609 19.3656C84.4741 19.4613 83.2628 20.1951 82.0834 20.9609C79.6609 22.5242 76.4734 23.928 73.9553 24.5342C71.6921 25.0766 71.2459 25.9062 72.2659 27.7248C72.9352 28.9371 72.9671 29.4476 73.2859 42.8797C73.6365 56.7903 73.6365 56.7903 72.9352 58.9918C71.7877 62.5651 71.2777 62.3418 80.0434 62.4375C88.8091 62.5332 88.3947 62.6928 87.3428 59.3427C86.7053 57.3646 86.6416 56.4713 86.5778 45.2726C86.5141 31.8086 86.5778 31.3619 88.8728 26.7676C92.2516 20.0356 101.145 11.4212 107.042 9.18788C108.763 8.54977 111.345 8.39025 111.664 8.90073C111.791 9.09216 111.504 10.0174 111.058 11.0065C110.612 11.9955 110.229 13.0803 110.229 13.4313C110.229 13.7822 110.771 14.6117 111.44 15.2818C114.405 18.2808 120.461 18.217 123.489 15.1541C124.541 14.1332 124.892 13.4951 125.051 12.3465C125.72 7.94358 122.342 4.17877 116.636 2.96638C114.054 2.42399 112.588 2.42399 109.91 3.03019Z" fill="#C87575"/>
<path d="M362.075 2.87066C359.588 3.28542 356.401 4.75306 353.213 6.8588C349.962 8.99644 343.173 15.6327 340.017 19.7166L337.977 22.3647L337.786 21.0247C337.595 19.6528 337.085 19.0466 336.32 19.3337C336.065 19.4294 334.917 20.1313 333.77 20.8971C331.475 22.3966 328.064 23.928 325.61 24.5661C324.621 24.7895 323.888 25.2042 323.57 25.6828C323.123 26.3847 323.155 26.5124 323.856 27.629C324.59 28.8414 324.59 28.9371 324.876 43.0392L325.163 57.237L324.43 59.3746C324.048 60.5551 323.793 61.7356 323.888 61.9908C324.08 62.4375 325.1 62.5013 331.73 62.5013C340.431 62.5013 340.176 62.597 338.997 59.8532C338.328 58.2579 338.296 57.7794 338.2 46.0383C338.105 35.9882 338.2 33.4996 338.583 31.7767C339.698 26.9909 342.567 22.3647 347.54 17.3237C351.237 13.5908 353.5 11.836 357.198 9.95359C359.238 8.90072 360.194 8.58167 361.405 8.58167C362.266 8.58167 363.063 8.7412 363.158 8.93263C363.286 9.09216 362.999 10.145 362.521 11.2298C361.533 13.5908 361.692 14.4203 363.445 15.7603C366.537 18.1213 371.828 18.0256 374.697 15.5051C376.865 13.5908 377.311 10.8788 375.877 8.00738C373.964 4.14686 367.812 1.84969 362.075 2.87066Z" fill="#C87575"/>
<path d="M243.467 19.3975C243.212 19.4932 242.129 20.1632 241.109 20.8332C238.622 22.4604 235.753 23.7366 233.108 24.4066C230.43 25.0766 230.016 25.7147 231.004 27.6928C231.673 29.001 231.705 29.4795 232.024 52.866C232.375 76.6672 232.375 76.6991 231.705 78.6772C230.908 81.0701 230.877 81.5168 231.546 81.772C232.343 82.0592 245.794 81.9954 246.304 81.6763C246.782 81.3892 246.75 81.102 245.89 77.9753C245.475 76.4439 245.38 74.37 245.38 66.9361V57.8113L246.719 59.0556C250.384 62.4375 256.313 63.6499 262.019 62.2142C267.31 60.8423 270.561 58.2261 272.952 53.4084C275.024 49.2607 275.789 45.4321 275.566 40.3273C275.151 30.4367 270.561 23.2261 262.975 20.4823C256.919 18.2808 251.245 19.238 246.91 23.2261L245.061 24.9171V22.3328C245.061 20.227 244.965 19.7166 244.519 19.4932C244.2 19.3337 243.722 19.2699 243.467 19.3975ZM253.635 26.2571C255.994 27.5014 258.64 31.9043 259.787 36.5944C260.744 40.3273 260.839 49.835 259.979 52.6427C258.799 56.4394 256.377 58.4813 253.89 57.7156C249.173 56.3117 245.699 47.9845 245.699 38.0939C245.699 32.2872 247.133 27.7567 249.364 26.3847C250.512 25.6828 252.424 25.6509 253.635 26.2571Z" fill="#C87575"/>
<path d="M107.679 20.8971C104.619 22.8114 101.719 24.1514 99.9654 24.4066C97.2879 24.8214 96.6822 25.7466 97.7979 27.5652C98.4354 28.6181 98.4991 29.1605 98.6266 37.6791C98.7222 42.6563 98.9454 47.6973 99.1047 48.9417C99.7422 53.7912 103.28 58.6408 107.615 60.6827C109.592 61.6399 110.006 61.7037 113.098 61.7037C115.999 61.7037 116.636 61.608 117.879 60.938C119.951 59.8532 121.449 58.577 122.533 57.0456L123.457 55.7055L123.649 57.9389C123.872 60.3956 124.445 61.5761 125.72 62.1185C126.23 62.3737 128.557 62.5013 132.096 62.5013C136.813 62.5013 137.706 62.4375 137.865 62.0228C137.961 61.7356 137.737 60.587 137.355 59.4384C136.717 57.4284 136.686 56.886 136.686 39.2106C136.686 28.2033 136.558 20.7375 136.367 20.2589C136.176 19.7485 135.825 19.4294 135.442 19.4294C135.124 19.4294 132.924 20.4185 130.597 21.6309C128.239 22.8433 125.689 23.9918 124.892 24.2152C122.342 24.8852 122.023 25.1085 122.023 25.97C122.023 26.4166 122.278 27.2462 122.597 27.8205C123.075 28.7457 123.139 29.9581 123.139 39.5296V50.2179L122.246 52.0364C121.13 54.3336 119.696 55.3227 117.847 55.0674C116.222 54.8441 114.564 53.5679 113.704 51.9088C112.333 49.2288 112.142 47.1231 112.11 33.7867C112.11 26.8633 111.982 20.8332 111.855 20.3866C111.504 19.0785 110.357 19.238 107.679 20.8971Z" fill="#C87575"/>
<path d="M152.623 20.3866C149.786 22.3328 146.057 23.9918 142.997 24.6619C142.519 24.7895 141.881 25.2042 141.626 25.619C141.148 26.3528 141.148 26.4804 141.817 27.7886C142.487 29.0967 142.519 29.671 142.837 43.103L143.156 57.0136L142.423 59.2789C142.041 60.5232 141.786 61.7356 141.913 62.0228C142.072 62.4375 143.156 62.5013 149.531 62.5013C155.141 62.5013 157.086 62.4056 157.341 62.0866C157.564 61.8313 157.436 61.0018 156.863 59.3427L156.098 57.0136L156.289 31.7129L157.245 29.7986C157.787 28.7776 158.616 27.629 159.094 27.2781C161.102 25.8104 164.353 27.0547 165.66 29.7348C166.999 32.5424 167.286 34.9672 167.509 46.2616C167.7 56.886 167.7 57.0136 166.967 59.247C166.553 60.4594 166.329 61.7037 166.425 61.9908C166.616 62.4694 167.477 62.5013 174.203 62.4375L181.789 62.3418L181.884 61.608C181.948 61.1932 181.725 60.268 181.438 59.5342C180.928 58.3537 180.833 56.7584 180.673 45.2726C180.482 32.8934 180.45 32.2553 179.749 30.2772C178.793 27.4695 177.454 25.4595 175.286 23.5452C171.047 19.7485 165.628 18.8232 161.006 21.0566C160.273 21.4075 158.871 22.5561 157.883 23.609L156.129 25.5233L156.098 23.5133C156.002 19.238 155.301 18.568 152.623 20.3866Z" fill="#C87575"/>
<path d="M408.708 20.1951C404.214 21.0566 401.026 22.5242 398.54 24.8852C395.161 28.0757 394.077 32 395.48 35.7648C396.755 39.083 399.305 41.093 407.752 45.3045C410.557 46.6764 413.617 48.4312 414.573 49.1331C417.251 51.175 418.143 53.7593 416.932 56.0884C416.167 57.6518 414.637 58.3537 412.023 58.3537C410.206 58.3537 409.76 58.226 408.931 57.5241C407.688 56.5032 407.688 55.7055 408.772 52.866L409.632 50.7283L408.995 49.7074C408.644 49.0693 407.72 48.3035 406.7 47.7612C403.576 46.134 398.572 46.7083 396.309 48.9736C394.173 51.1112 394.109 54.3974 396.181 57.4922C399.655 62.7885 411.8 65.1495 421.649 62.4694C429.65 60.3318 433.634 54.0146 431.371 47.0273C430.224 43.4221 426.207 40.3592 419.259 37.7749C413.266 35.5734 410.302 33.5634 409.377 31.0748C408.485 28.7457 409.282 26.8952 411.8 25.619C413.808 24.6299 416.549 24.5342 417.506 25.4914C418.366 26.3528 418.302 27.3419 417.155 30.0538C416.039 32.7658 416.167 33.5315 417.952 34.9034C421.107 37.3282 426.431 37.1368 429.299 34.5524C430.797 33.1805 431.339 31.681 431.116 29.5752C430.638 25.5233 426.781 22.1094 420.852 20.5461C418.239 19.8442 411.577 19.6527 408.708 20.1951Z" fill="#C87575"/>
<path d="M197.089 20.6418C191.192 22.1733 187.686 24.9809 186.73 28.969C186.283 30.8834 186.698 32.67 187.909 34.1058C190.555 37.2644 197.185 37.5515 200.276 34.5843C201.615 33.34 201.711 32.3829 200.627 30.0857C199.384 27.4057 199.32 26.6081 200.245 25.6509C200.914 24.9809 201.328 24.8533 202.986 24.8533C206.237 24.8533 208.787 26.3528 210.158 29.0967C211.082 30.9472 211.178 32.6381 210.477 34.3291C209.775 35.9882 209.138 36.5944 207.13 37.6153C205.185 38.5725 203.145 39.2106 199.32 40.0082C196.037 40.6782 191.32 42.2097 189.981 43.0392C188.068 44.2197 186.092 48.2397 186.092 51.0155C186.092 52.5469 186.921 55.2908 187.845 56.7265C188.929 58.4494 191.925 61.0656 193.87 61.9908C199.32 64.5752 206.396 63.6818 210.795 59.8532L212.038 58.7684L212.612 59.9808C213.6 62.2461 214.429 62.5013 221.091 62.5013C227.848 62.5013 227.689 62.597 226.637 59.5022C226.032 57.7475 225.936 56.4394 225.649 46.3892C225.298 34.2334 225.107 32.9572 223.322 29.5752C221.378 25.9062 216.692 22.588 211.21 20.9928C207.863 20.0356 200.245 19.8442 197.089 20.6418ZM211.178 45.1768C210.955 50.7921 210.604 53.0255 209.488 55.227C208.468 57.237 207.385 58.0346 205.6 58.0346C203.719 58.0346 202.348 57.1413 201.01 55.0674C200.085 53.6317 199.958 53.0893 199.862 50.9836C199.639 46.7721 200.882 45.2726 206.906 42.2097C209.042 41.1249 210.923 40.2316 211.082 40.1996C211.242 40.1677 211.305 42.2735 211.178 45.1768Z" fill="#C87575"/>
<path d="M297.177 20.5461C292.204 21.6309 289.463 23.0985 286.18 26.4166C281.941 30.6919 280.283 35.2544 280.538 41.763C280.921 51.8131 286.276 59.1513 295.583 62.4056C297.878 63.2032 298.548 63.299 302.436 63.299C306.102 63.299 307.058 63.2032 308.875 62.5651C314.868 60.4913 318.884 55.7693 319.266 50.3455C319.426 48.0164 319.107 47.1869 318.023 47.1869C317.673 47.1869 316.78 48.0802 315.728 49.5159C313.656 52.2917 312.413 53.4084 310.118 54.4612C308.652 55.1312 308.078 55.227 305.974 55.0993C304.572 55.0036 303.106 54.7165 302.5 54.3974C300.779 53.5041 298.93 51.6536 298.069 49.9626C297.4 48.5907 297.336 48.2716 297.687 47.6335C298.643 45.8469 301.831 44.3792 307.122 43.3264C314.389 41.8906 317.322 40.2635 319.043 36.7858C320.127 34.5843 320.127 29.9581 319.075 27.5333C317.641 24.3428 314.007 21.7266 309.417 20.578C306.867 19.9399 299.95 19.9399 297.177 20.5461ZM303.552 26.5124C307.218 29.7348 307.345 35.6053 303.807 38.5406C302.213 39.8487 295.647 43.0711 295.392 42.6563C295.009 42.0501 294.818 36.052 295.105 33.4358C295.456 30.2772 295.774 29.0648 296.699 27.5333C297.623 26.0976 298.739 25.5233 300.747 25.4914C302.181 25.4914 302.596 25.6509 303.552 26.5124Z" fill="#C87575"/>
<path d="M360.481 20.7056C353.723 22.4923 349.962 26.2571 350.313 30.9472C350.472 33.2124 351.492 34.6801 353.66 35.7329C355.668 36.7539 360.29 36.8177 362.043 35.8925C365.103 34.2653 365.517 33.1805 364.274 30.2133C362.457 25.97 363.158 24.6938 367.111 24.9171C371.063 25.1404 374.123 27.8205 374.41 31.3619C374.602 33.691 374.06 35.1586 372.498 36.4987C370.84 37.9025 368.705 38.7001 363.477 39.8806C355.795 41.6035 353.436 42.6244 351.843 44.8259C350.472 46.7721 349.866 48.6226 349.866 51.0155C349.866 54.1422 350.855 56.4713 353.245 58.8641C356.624 62.2461 360.322 63.6499 365.039 63.3628C368.482 63.1713 370.808 62.4056 373.677 60.4275C375.622 59.0875 375.685 59.0556 375.877 59.7256C375.972 60.1084 376.068 60.8104 376.068 61.2889C376.068 63.0118 377.693 67.2233 379.224 69.5524C383.049 75.4229 390.412 80.432 396.914 81.6125C401.345 82.442 406.859 81.8996 409.887 80.3682C414.031 78.2306 416.868 73.381 415.944 69.9671C415.497 68.2762 413.298 66.2023 411.386 65.6599C408.102 64.7028 403.735 65.6599 402.046 67.67C401.058 68.8504 401.058 69.6481 402.046 71.8176C403.194 74.3062 403.353 75.4548 402.652 76.2843C402.11 76.8586 401.791 76.9224 400.07 76.7629C396.691 76.5077 394.524 74.8167 392.611 71.02C390.38 66.649 389.519 60.2999 389.137 45.4321C388.882 35.9882 388.754 34.3291 388.212 32.5105C386.332 26.4485 380.913 22.2371 372.848 20.5461C369.597 19.8442 363.445 19.9399 360.481 20.7056ZM374.474 49.9945C373.996 53.5998 373.103 55.8332 371.701 57.1094C370.649 58.0346 370.394 58.0984 368.832 57.9708C367.43 57.8432 366.92 57.6198 365.963 56.7265C364.402 55.227 363.318 52.8341 363.318 50.856C363.318 46.7721 364.816 44.9854 370.458 42.2735C372.434 41.3163 374.219 40.3592 374.347 40.1039C374.793 39.4658 374.857 46.9954 374.474 49.9945Z" fill="#C87575"/>
</svg>
